<svg xmlns="http://www.w3.org/2000/svg" width="604" height="586" fill="none"><g opacity=".3"><path fill="url(#a)" d="M603.934 556.146v-8.709l-2.39-1.342c-.68 4.102-5.518 6.824-9.579 7.387l-27.533 16.116-12.009 4.335-38.375-19.809.893-.505c-3.283-1.536-5.052-5.035-6.82-8.243l-2.584 1.536-1.535.447v8.923a5.836 5.836 0 0 0 3.381 4.724l38.492 22.2a18.147 18.147 0 0 0 16.322 0l38.434-22.2a5.837 5.837 0 0 0 3.362-4.627 1.009 1.009 0 0 0 0-.233h-.059Z" opacity=".3"/><path fill="#0F054C" d="m591.964 553.482-27.533 16.116-10.454 3.772v11.78c2.842.059 5.651-.61 8.161-1.944l38.434-22.2a5.837 5.837 0 0 0 3.362-4.627.909.909 0 0 0 0-.233v-8.709l-2.196-1.225h-.233c-.738 4.043-5.518 6.629-9.541 7.27Z" opacity=".3"/><path fill="url(#b)" d="m545.876 574.342-38.434-22.201c-4.508-2.585-4.508-6.823 0-9.428l38.434-22.201a18.14 18.14 0 0 1 16.322 0l38.434 22.201c4.488 2.605 4.488 6.843 0 9.428l-38.434 22.201a18.027 18.027 0 0 1-16.322 0Z" opacity=".3"/><path fill="#0F054C" d="m545.876 574.342-38.434-22.201c-4.508-2.585-4.508-6.823 0-9.428l38.434-22.201a18.14 18.14 0 0 1 16.322 0l38.434 22.201c4.488 2.605 4.488 6.843 0 9.428l-38.434 22.201a18.027 18.027 0 0 1-16.322 0Z" opacity=".3"/></g><path fill="#42E8E0" d="M553.977 546.29a14.927 14.927 0 0 1-7.247-1.73l-38.434-22.201a4.65 4.65 0 0 1-3.106-4.384 4.649 4.649 0 0 1 3.106-4.383l38.434-22.201a16.088 16.088 0 0 1 14.476 0l38.453 22.201a4.641 4.641 0 0 1 3.105 4.383 4.642 4.642 0 0 1-3.105 4.384l-38.434 22.201a14.93 14.93 0 0 1-7.248 1.73Zm0-55.949a14.268 14.268 0 0 0-6.917 1.633l-38.434 22.201a4.002 4.002 0 0 0-2.741 3.8 4.008 4.008 0 0 0 2.741 3.801l38.434 22.2a15.31 15.31 0 0 0 13.815 0l38.434-22.239a4.004 4.004 0 0 0 0-7.601l-38.434-22.201a14.243 14.243 0 0 0-6.898-1.594Z"/><path fill="#42E8E0" d="M603.934 509.451V496.29l-2.39-1.341c-.68 4.121-5.518 6.823-9.579 7.387l-27.533 16.116-12.009 4.335-38.375-19.81.893-.505c-3.283-1.536-5.052-5.035-6.82-8.243l-2.584 1.536-1.535.447v13.375a5.836 5.836 0 0 0 3.381 4.724l38.492 22.2a18.028 18.028 0 0 0 16.322 0l38.434-22.2a5.837 5.837 0 0 0 3.362-4.627 1.009 1.009 0 0 0 0-.233h-.059Z" opacity=".4"/><path fill="url(#c)" d="M603.934 497.748v-8.709l-2.39-1.342c-.68 4.122-5.518 6.824-9.579 7.388L564.432 511.2l-12.009 4.335-38.375-19.809.893-.505c-3.283-1.536-5.052-5.035-6.82-8.243l-2.584 1.555-1.535.428v8.923a5.836 5.836 0 0 0 3.381 4.724l38.492 22.2a18.028 18.028 0 0 0 16.322 0l38.434-22.2a5.837 5.837 0 0 0 3.362-4.627 1.009 1.009 0 0 0 0-.233h-.059Z"/><path fill="#0F054C" d="M591.964 495.084 564.431 511.2l-10.454 3.771v11.781a16.673 16.673 0 0 0 8.161-1.944l38.434-22.201a5.826 5.826 0 0 0 3.362-4.626.916.916 0 0 0 0-.234v-8.709l-2.196-1.225h-.233c-.738 4.044-5.518 6.707-9.541 7.271Z" opacity=".3"/><path fill="url(#d)" d="m545.876 515.904-38.434-22.2c-4.508-2.605-4.508-6.843 0-9.429l38.434-22.142a18.027 18.027 0 0 1 16.322 0l38.434 22.201c4.488 2.585 4.488 6.823 0 9.428l-38.493 22.142a18.135 18.135 0 0 1-16.263 0Z"/><path fill="#fff" d="m600.572 493.763-38.434 22.142a18.146 18.146 0 0 1-16.322 0l-38.434-22.2a6.076 6.076 0 0 1-3.342-4.18c-.272 1.944.855 3.888 3.342 5.249l38.492 22.259a18.027 18.027 0 0 0 16.322 0l38.434-22.201a5.41 5.41 0 0 0 3.323-5.249 6.108 6.108 0 0 1-3.381 4.18Z"/><path fill="url(#e)" d="m534.677 488-87.424-52.317-27.795 16.035h-.323L365 419.81l.323-.81 54.135 31.746 27.795-16.035.646.324L535 487.19l-.323.81Z"/><g opacity=".3"><path fill="url(#f)" d="M100 555.204v-8.71l-2.411-1.341c-.68 4.121-5.521 6.824-9.564 7.387l-27.567 16.116-12.013 4.335-38.395-19.809.895-.506c-3.286-1.535-5.055-5.035-6.824-8.242l-2.585 1.555-1.536.428v8.923a5.833 5.833 0 0 0 3.383 4.724l38.452 22.2a18.043 18.043 0 0 0 16.33 0l38.452-22.2a5.832 5.832 0 0 0 3.383-4.627v-.233Z" opacity=".3"/><path fill="#0F054C" d="m88.024 552.578-27.566 16.116-10.459 3.772v11.78c2.843.059 5.654-.61 8.165-1.944l38.452-22.2a5.839 5.839 0 0 0 3.383-4.627v-8.942l-2.216-1.225h-.233c-.74 4.005-5.521 6.668-9.526 7.27Z" opacity=".3"/><path fill="url(#g)" d="M41.835 573.419 3.383 551.218c-4.51-2.605-4.51-6.843 0-9.428l38.452-22.259a18.043 18.043 0 0 1 16.33 0l38.452 22.2c4.491 2.586 4.491 6.824 0 9.429l-38.452 22.259a18.159 18.159 0 0 1-16.33 0Z" opacity=".3"/><path fill="#0F054C" d="M41.835 573.419 3.383 551.218c-4.51-2.605-4.51-6.843 0-9.428l38.452-22.259a18.043 18.043 0 0 1 16.33 0l38.452 22.2c4.491 2.586 4.491 6.824 0 9.429l-38.452 22.259a18.159 18.159 0 0 1-16.33 0Z" opacity=".3"/></g><path fill="#42E8E0" d="M50 541.11a14.714 14.714 0 0 1-7.251-1.731l-38.453-22.2a4.648 4.648 0 0 1 0-8.748L42.75 486.23a16.027 16.027 0 0 1 14.502 0l38.452 22.201a4.646 4.646 0 0 1 0 8.748l-38.452 22.2A14.713 14.713 0 0 1 50 541.11Zm-6.92-2.314a15.321 15.321 0 0 0 13.82 0l38.453-22.2a3.89 3.89 0 0 0 0-7.582l-38.452-22.2a15.192 15.192 0 0 0-13.822 0l-38.452 22.2a3.887 3.887 0 0 0 0 7.582l38.452 22.2Z"/><path fill="#42E8E0" d="M100 504.29v-13.18l-2.411-1.342c-.68 4.122-5.521 6.824-9.565 7.387l-27.566 16.116-12.014 4.316-38.394-19.809.895-.506c-3.286-1.536-5.055-5.035-6.824-8.242l-2.585 1.555-1.536.427v13.395a5.714 5.714 0 0 0 3.383 4.704l38.452 22.201a18.042 18.042 0 0 0 16.33 0l38.452-22.201a5.839 5.839 0 0 0 3.382-4.627v-.233.039Z" opacity=".4"/><path fill="url(#h)" d="M100 492.568v-8.709l-2.411-1.342c-.68 4.121-5.521 6.824-9.565 7.387L60.458 506.02l-12.014 4.335-38.394-19.809.895-.506c-3.286-1.535-5.055-5.034-6.824-8.223l-2.585 1.536-1.536.428v8.942a5.83 5.83 0 0 0 3.383 4.705l38.452 22.2a18.043 18.043 0 0 0 16.33 0l38.452-22.2a5.839 5.839 0 0 0 3.382-4.627v-.233Z"/><path fill="url(#i)" d="M41.835 510.783 3.383 488.582c-4.51-2.605-4.51-6.843 0-9.428l38.452-22.201a18.042 18.042 0 0 1 16.33 0l38.452 22.201c4.491 2.605 4.491 6.823 0 9.428l-38.452 22.201a18.042 18.042 0 0 1-16.33 0Z"/><path fill="#5351AF" d="M50 506.739a13.321 13.321 0 0 1-6.551-1.555l-30.035-17.341a4.215 4.215 0 0 1-2.807-3.975 4.22 4.22 0 0 1 2.807-3.976l30.035-17.34a14.43 14.43 0 0 1 13.102 0l30.035 17.34a4.22 4.22 0 0 1 0 7.951l-30.035 17.341a13.321 13.321 0 0 1-6.55 1.555Zm-6.22-2.138a13.709 13.709 0 0 0 12.422 0l30.054-17.341a3.558 3.558 0 0 0 0-6.784l-30.054-17.322a13.709 13.709 0 0 0-12.423 0l-30.035 17.341a4.148 4.148 0 0 0-2.469 3.383 4.2 4.2 0 0 0 2.47 3.402l30.034 17.321Z"/><path fill="#fff" d="m96.617 488.583-38.453 22.2a18.043 18.043 0 0 1-16.33 0l-38.452-22.2a6.083 6.083 0 0 1-3.343-4.18 5.48 5.48 0 0 0 3.343 5.268l38.453 22.201a18.159 18.159 0 0 0 16.33 0l38.452-22.201a5.44 5.44 0 0 0 3.324-5.268 6.062 6.062 0 0 1-3.324 4.18Z"/><path fill="url(#j)" d="m54.71 503.441 87.129-50.133 27.884 15.044.323-.002 53.956-30.582-.328-.766-53.956 30.428-27.884-15.044-.645.311-86.807 49.978.327.766Z"/><g opacity=".3"><path fill="url(#k)" d="M602.903 202.896v-8.709l-2.408-1.342c-.68 4.102-5.516 6.824-9.555 7.387l-27.54 16.097-12.002 4.354-38.357-19.809.893-.525c-3.282-1.516-5.049-5.035-6.817-8.223l-2.583 1.536-1.534.427v8.943a5.697 5.697 0 0 0 3.379 4.704l38.416 22.201a18.007 18.007 0 0 0 16.314 0l38.415-22.201a5.823 5.823 0 0 0 3.379-4.626v-.214Z" opacity=".3"/><path fill="#0F054C" d="M590.939 200.232 563.4 216.329l-10.449 3.79V231.9a16.65 16.65 0 0 0 8.157-1.944l38.415-22.2a5.835 5.835 0 0 0 3.38-4.627v-8.923l-2.195-1.225h-.233c-.777 4.024-5.535 6.688-9.536 7.251Z" opacity=".3"/><path fill="url(#l)" d="m544.794 221.091-38.318-22.2c-4.506-2.605-4.506-6.824 0-9.429l38.318-22.278a18.013 18.013 0 0 1 16.314 0l38.416 22.201c4.505 2.605 4.505 6.823 0 9.428l-38.416 22.201a18.015 18.015 0 0 1-16.314.077Z" opacity=".3"/><path fill="#0F054C" d="m544.794 221.091-38.318-22.2c-4.506-2.605-4.506-6.824 0-9.429l38.318-22.278a18.013 18.013 0 0 1 16.314 0l38.416 22.201c4.505 2.605 4.505 6.823 0 9.428l-38.416 22.201a18.015 18.015 0 0 1-16.314.077Z" opacity=".3"/></g><path fill="#42E8E0" d="M552.953 194.498a14.922 14.922 0 0 1-7.245-1.73l-38.415-22.201a4.645 4.645 0 0 1-2.249-7.07 4.639 4.639 0 0 1 2.249-1.697l38.415-22.201a16.107 16.107 0 0 1 14.489 0l38.415 22.201a4.649 4.649 0 0 1 0 8.767l-38.415 22.201a14.918 14.918 0 0 1-7.244 1.73Zm0-55.968a14.19 14.19 0 0 0-6.895 1.652l-38.435 22.201a4.004 4.004 0 0 0-1.983 6.144 4.004 4.004 0 0 0 1.983 1.457l38.435 22.2a15.296 15.296 0 0 0 13.809 0l38.415-22.2a4 4 0 0 0 2.74-3.801 4.005 4.005 0 0 0-2.74-3.8l-38.415-22.201a14.266 14.266 0 0 0-6.914-1.652Z"/><path fill="#42E8E0" d="M602.903 157.659v-13.161l-2.408-1.342c-.68 4.102-5.516 6.824-9.555 7.388l-27.54 16.115-12.002 4.413-38.357-19.809.893-.506c-3.282-1.535-5.049-5.035-6.817-8.242l-2.583 1.536-1.534.447v13.375a5.837 5.837 0 0 0 3.476 4.646l38.319 22.161a18.008 18.008 0 0 0 16.314 0l38.415-22.2a5.831 5.831 0 0 0 3.379-4.627v-.233.039Z" opacity=".4"/><path fill="url(#m)" d="M602.903 145.956v-8.709l-2.408-1.342c-.68 4.102-5.516 6.824-9.555 7.387l-27.54 16.116-12.002 4.335-38.357-19.887.893-.505c-3.282-1.536-5.049-5.035-6.817-8.243l-2.583 1.536-1.534.447v8.923a5.84 5.84 0 0 0 3.379 4.724l38.416 22.278a18.127 18.127 0 0 0 16.314 0l38.415-22.2a5.831 5.831 0 0 0 3.379-4.627v-.233Z"/><path fill="#0F054C" d="M590.939 143.293 563.4 159.409l-10.449 3.771v11.781a16.66 16.66 0 0 0 8.157-1.944l38.415-22.201a5.835 5.835 0 0 0 3.38-4.626v-8.943l-2.195-1.225h-.233c-.777 4.044-5.535 6.707-9.536 7.271Z" opacity=".3"/><path fill="url(#n)" d="m513.934 143.428 36.415-20.956a5.822 5.822 0 0 1 5.224 0l35.755 20.665-.388.233c4.039-.564 8.875-3.286 9.555-7.387l-40.144-22.356-11.653-3.091-9.516 5.598-32.045 19.129c1.748 3.13 3.515 6.649 6.797 8.165Z"/><path fill="#0F054C" d="m552.951 111.605-4.272-1.147-9.517 5.599-32.045 19.129c1.767 3.207 3.535 6.707 6.817 8.242l36.415-20.956a5.166 5.166 0 0 1 2.602-.642v-10.225Z" opacity=".3"/><path fill="url(#o)" d="m544.794 164.152-38.318-22.24c-4.506-2.585-4.506-6.823 0-9.428l38.415-22.201a18.129 18.129 0 0 1 16.314 0l38.416 22.201c4.506 2.605 4.506 6.843 0 9.428l-38.416 22.201a18.013 18.013 0 0 1-16.411.039Zm10.779-50.544a5.822 5.822 0 0 0-5.224 0l-38.416 22.2a1.594 1.594 0 0 0 0 3.033l38.416 22.2a5.822 5.822 0 0 0 5.224 0l38.416-22.2a1.613 1.613 0 0 0 .769-2.442 1.613 1.613 0 0 0-.769-.591l-38.416-22.2Z"/><path fill="#fff" d="m593.988 135.73-38.415-22.2a5.826 5.826 0 0 0-5.225 0l-38.415 22.2c-.971.564-1.282 1.341-.971 2.061.219-.414.557-.753.971-.972l38.415-22.123a5.825 5.825 0 0 1 5.225 0l38.415 22.201c.409.219.741.558.952.972.31-.798 0-1.575-.952-2.139Z"/><path fill="#fff" d="m599.525 141.912-38.415 22.2a18.002 18.002 0 0 1-16.314 0l-38.319-22.2a6.016 6.016 0 0 1-3.34-4.16 5.468 5.468 0 0 0 3.34 5.249l38.319 22.239a18.007 18.007 0 0 0 16.314 0l38.415-22.201a5.456 5.456 0 0 0 3.341-5.248 6.034 6.034 0 0 1-3.341 4.121Z"/><path fill="url(#p)" d="m545.882 163.53-38.416-22.201c-3.884-2.255-3.884-5.832 0-8.165l38.416-22.2a15.513 15.513 0 0 1 14.138 0l38.416 22.2c3.884 2.255 3.884 5.832 0 8.165L560.02 163.53a15.526 15.526 0 0 1-14.138 0Zm10.759-50.544a8.082 8.082 0 0 0-7.38 0l-38.415 22.122a2.258 2.258 0 0 0-1.538 2.139 2.255 2.255 0 0 0 1.538 2.138l38.357 22.201a8.236 8.236 0 0 0 7.38 0l38.435-22.201a2.25 2.25 0 0 0 1.537-2.138 2.258 2.258 0 0 0-1.537-2.139l-38.377-22.122Z"/><path fill="#42E8E0" d="M555.574 113.53a5.82 5.82 0 0 0-5.224 0l-38.415 22.2a1.593 1.593 0 0 0-.797 2.454c.198.272.476.475.797.579l38.415 22.2a5.822 5.822 0 0 0 5.224 0l38.416-22.2a1.613 1.613 0 0 0 .769-2.442 1.613 1.613 0 0 0-.769-.591l-38.416-22.2Z" opacity=".4"/><path fill="url(#q)" d="m526.594 181.78-89.02 49.553-.01 32.088-.162.28-54.701 30.928-.539-.685 54.56-31.009.011-32.088.604-.398 88.717-49.354.54.685Z"/><path fill="#758EF5" d="m471.023 322.296 15.063 8.719v34.815l-15.063-8.704v-34.83Z" opacity=".5"/><path fill="#758EF5" d="m455.961 331.015 15.063 8.704v17.407l-15.063-8.703v-17.408Z" opacity=".2"/><path fill="#758EF5" d="m440.897 270.059 15.063 8.719v69.645l-15.063-8.704v-69.66Z" opacity=".5"/><path fill="#758EF5" d="m425.819 243.948 15.078 8.704v87.067l-15.078-8.704v-87.067Z" opacity=".2"/><path fill="#758EF5" d="m410.757 252.652 15.062 8.703v69.66l-15.062-8.719v-69.644Z" opacity=".5"/><path fill="#758EF5" d="m395.693 191.711 15.063 8.704v121.881l-15.063-8.704V191.711Z" opacity=".2"/><path fill="#758EF5" d="m380.632 200.415 15.062 8.704v104.474l-15.062-8.704V200.415Z" opacity=".5"/><path fill="#758EF5" d="m365.569 209.118 15.063 8.704v87.066l-15.063-8.703v-87.067Z" opacity=".2"/><path fill="#758EF5" d="m350.492 165.585 15.078 8.719v121.882l-15.078-8.704V165.585Z" opacity=".5"/><path fill="#758EF5" d="m335.429 122.067 15.062 8.703v156.712l-15.062-8.72V122.067Z" opacity=".2"/><path fill="#758EF5" d="m320.366 130.771 15.063 8.703v139.289l-15.063-8.704V130.771Z" opacity=".5"/><path fill="#758EF5" d="m305.304 87.237 15.062 8.703V270.06l-15.062-8.704V87.237Z" opacity=".2"/><path fill="#758EF5" d="m290.225 78.533 15.078 8.704v174.118l-15.078-8.703V78.533Z" opacity=".5"/><path fill="#758EF5" d="m275.163 35 15.063 8.704v208.948l-15.063-8.704V35Z" opacity=".2"/><path fill="#0F054C" d="M289.96 495c76.216 0 138.002-35.704 138.002-79.746 0-44.043-61.786-79.747-138.002-79.747-76.216 0-138.001 35.704-138.001 79.747 0 44.042 61.785 79.746 138.001 79.746Z" opacity=".4"/><path fill="url(#r)" d="M289.961 463.294c86.747 0 157.07-40.637 157.07-90.766 0-50.129-70.323-90.766-157.07-90.766-86.748 0-157.07 40.637-157.07 90.766 0 50.129 70.322 90.766 157.07 90.766Z"/><path fill="url(#s)" d="M447.047 342.641h-3.882c-6.305-16.164-20.342-31.535-42.129-44.108-61.337-35.452-160.797-35.452-222.057 0-20.575 11.889-34.162 26.25-41.01 41.435h-4.923v20.127c-1.226 24.106 14.085 48.445 45.933 66.831 61.338 35.436 160.797 35.436 222.135 0 30.668-17.734 46.011-40.954 46.011-64.189l-.078-20.096Z" opacity=".48"/><path fill="url(#t)" d="M443.165 334.838a37.291 37.291 0 0 0-.699-1.678v-13.227h-8.23v-.948a83.843 83.843 0 0 0-6.987-8.221v9.169h-4.659V306.21a105.533 105.533 0 0 0-7.019-5.844v19.599h-4.658v-23.081a153.148 153.148 0 0 0-7.05-4.569v27.572h-4.659V289.58a146.557 146.557 0 0 0-7.065-3.73v34.037h-4.659v-36.198a787.228 787.228 0 0 0-7.081-3.108v39.306h-4.658v-31.784h-7.097v31.83h-4.658v-23.049h-7.128v23.096H352.2v-14.361h-7.143v14.361h-4.566v-5.611h-7.096v5.611h-86.742v-5.611h-7.174v5.611h-4.566v-14.361h-7.112v14.361h-4.658v-23.096h-7.128v23.096h-4.658v-31.877h-7.097v31.83h-4.658v-39.337c-2.392.974-4.752 2.01-7.081 3.109v36.275h-4.659v-34.115a159.656 159.656 0 0 0-7.065 3.715v30.353h-4.659v-27.618a123.127 123.127 0 0 0-7.05 4.554v23.064h-4.658v-19.645c-2.5 1.896-4.83 3.855-7.019 5.844v13.801h-4.659v-9.325a88.56 88.56 0 0 0-6.988 8.206v1.042h-8.23v12.2h-3.493v33.742a60.886 60.886 0 0 0 6.972 17.905v-21.029h4.751v28.24a84.03 84.03 0 0 0 6.988 8.191v-36.431h4.659v41a111.41 111.41 0 0 0 7.019 5.829v-46.829h4.658v50.248a153.588 153.588 0 0 0 7.05 4.569v-54.817h4.659v57.506a180.509 180.509 0 0 0 7.065 3.715v-61.221h4.659v63.459a787.228 787.228 0 0 0 7.081 3.108v-66.52h4.658v68.385c2.329.886 4.659 1.725 7.097 2.534v-70.966h4.658v72.333c2.361.731 4.659 1.415 7.128 2.067v-74.4h4.658v75.644a253.18 253.18 0 0 0 7.143 1.647v-77.244h4.566v78.192c2.376.467 4.767.886 7.174 1.29v-79.529h4.55v80.182c2.376.358 4.782.668 7.189.964v-81.146h4.519v81.643c2.392.233 4.798.435 7.221.622v-82.265h4.488v82.56c2.422.124 4.829.233 7.251.311v-82.871h4.473v82.964h7.313v-82.964h4.473v82.871c2.422 0 4.829-.187 7.251-.311v-82.56h4.488v82.265c2.423-.187 4.829-.389 7.221-.638v-81.627h4.519v81.13c2.407-.28 4.813-.606 7.189-.948v-80.182h4.566v79.467c2.407-.388 4.798-.824 7.174-1.29v-78.177h4.565v77.198a248.973 248.973 0 0 0 7.143-1.663v-75.535h4.659v74.385a269.23 269.23 0 0 0 7.127-2.067v-72.318h4.659V433.5c2.391-.793 4.767-1.555 7.096-2.518v-68.308h4.659v66.489c2.391-.979 4.752-1.989 7.081-3.108v-63.381h4.658v61.221a179.843 179.843 0 0 0 7.066-3.715v-57.506h4.658v54.786a135.038 135.038 0 0 0 7.05-4.585v-50.201h4.659v46.782a119.58 119.58 0 0 0 7.019-5.844v-40.938h4.658v36.384a82.108 82.108 0 0 0 6.988-8.221v-28.163h4.674v20.967a60.31 60.31 0 0 0 6.972-18.076v-30.711l-2.795-.016Z" opacity=".48"/><path fill="url(#u)" d="M289.961 425.636c86.747 0 157.07-40.638 157.07-90.766 0-50.129-70.323-90.766-157.07-90.766-86.748 0-157.07 40.637-157.07 90.766 0 50.128 70.322 90.766 157.07 90.766Z"/><path fill="#91A2FA" d="M290.023 244.041c-35.591 0-71.182 6.948-100.158 20.827L143 366.824c7.64 11.734 19.581 22.723 35.902 32.157a177.245 177.245 0 0 0 33.184 14.64l77.937-169.58ZM334.03 247.74l-80.624 175.409a271.157 271.157 0 0 0 58.791 1.554l74.21-161.467a214.334 214.334 0 0 0-52.377-15.496Z" opacity=".3"/><g opacity=".05"><path fill="url(#v)" d="M289.961 415.254c76.825 0 139.104-35.989 139.104-80.384s-62.279-80.384-139.104-80.384c-76.825 0-139.104 35.989-139.104 80.384s62.279 80.384 139.104 80.384Z" opacity=".05"/><g fill="#91A2FA" opacity=".05"><path d="m41.49 334.528-1.49-.87 242.337-140.035 1.491.87L41.491 334.528ZM45.76 336.983l-1.49-.855 242.337-140.034 1.491.855L45.761 336.983ZM50.032 339.455l-1.491-.855 242.337-140.034 1.491.854L50.032 339.455ZM54.302 341.926l-1.491-.855 242.337-140.034 1.491.854L54.302 341.926ZM58.572 344.397l-1.49-.87 242.336-140.035 1.491.871L58.572 344.397ZM62.842 346.853l-1.49-.855 242.336-140.035 1.491.855L62.842 346.853ZM67.113 349.324l-1.49-.855 242.336-140.035 1.475.855L67.113 349.324ZM71.383 351.795l-1.49-.855 242.336-140.034 1.476.855L71.383 351.795ZM75.653 354.267l-1.49-.871 242.336-140.034 1.476.855-242.322 140.05ZM79.924 356.722l-1.49-.855L320.77 215.833l1.475.855L79.924 356.722ZM84.178 359.193l-1.475-.855L325.04 218.304l1.475.855L84.178 359.193ZM88.449 361.664l-1.475-.854L329.31 220.775l1.475.855L88.449 361.664ZM92.72 364.12l-1.476-.855L333.581 223.23l1.475.855L92.719 364.12ZM96.99 366.591l-1.475-.855 242.337-140.034 1.475.855L96.99 366.591ZM101.26 369.062l-1.475-.855 242.337-140.034 1.475.855L101.26 369.062ZM105.531 371.533l-1.491-.854 242.337-140.05 1.491.87-242.337 140.034ZM109.801 374.005l-1.491-.87L350.647 233.1l1.491.855-242.337 140.05ZM114.071 376.461l-1.49-.855 242.336-140.034 1.491.854-242.337 140.035ZM118.341 378.932l-1.49-.855 242.336-140.035 1.491.855-242.337 140.035ZM122.612 381.403l-1.491-.87 242.337-140.035 1.491.87-242.337 140.035ZM126.882 383.858l-1.49-.855 242.336-140.034 1.491.855-242.337 140.034ZM131.152 386.33l-1.49-.855L371.998 245.44l1.491.855L131.152 386.33ZM135.423 388.801l-1.491-.855 242.337-140.034 1.491.855-242.337 140.034ZM139.693 391.272l-1.491-.855 242.337-140.05 1.491.871-242.337 140.034ZM143.963 393.727l-1.49-.854L384.81 252.838l1.49.855-242.337 140.034ZM148.234 396.198l-1.491-.854L389.08 255.309l1.475.855-242.321 140.034ZM152.504 398.67l-1.49-.855 242.337-140.034 1.475.854L152.504 398.67ZM156.759 401.141l-1.475-.87 242.337-140.035 1.475.871-242.337 140.034ZM161.029 403.597l-1.475-.855 242.337-140.034 1.475.854-242.337 140.035ZM165.299 406.068l-1.475-.855 242.337-140.035 1.475.855-242.337 140.035ZM169.57 408.539l-1.475-.855 242.337-140.035 1.475.855L169.57 408.539ZM173.84 411.01l-1.475-.87 242.337-140.034 1.475.855L173.84 411.01ZM178.11 413.466l-1.475-.855 242.322-140.034 1.49.854L178.11 413.466ZM182.38 415.937l-1.475-.854 242.337-140.035 1.475.855L182.38 415.937ZM186.651 418.409l-1.475-.855 242.321-140.05 1.491.87-242.337 140.035ZM190.921 420.88l-1.475-.871 242.322-140.034 1.49.87L190.921 420.88ZM195.192 423.335l-1.491-.855 242.337-140.034 1.491.855-242.337 140.034ZM199.462 425.807l-1.49-.855 242.337-140.034 1.49.855-242.337 140.034ZM203.733 428.278l-1.491-.855 242.337-140.05 1.491.87-242.337 140.035ZM208.002 430.749l-1.49-.87 242.337-140.035 1.49.871-242.337 140.034ZM212.273 433.204l-1.491-.854 242.337-140.035 1.491.855-242.337 140.034ZM216.544 435.675l-1.49-.854 242.337-140.035 1.49.855-242.337 140.034ZM220.814 438.147l-1.491-.854L461.66 297.258l1.491.855-242.337 140.034ZM225.084 440.619l-1.49-.871 242.337-140.034 1.49.855-242.337 140.05ZM229.355 443.074l-1.491-.855 242.337-140.034 1.491.855-242.337 140.034ZM233.626 445.545l-1.491-.855 242.337-140.034 1.49.855-242.336 140.034ZM237.895 448.016l-1.491-.855 242.337-140.05 1.491.871-242.337 140.034ZM242.166 450.472l-1.491-.855 242.337-140.035 1.475.855-242.321 140.035ZM246.436 452.943l-1.491-.854 242.337-140.035 1.475.855-242.321 140.034ZM250.69 455.414l-1.475-.854 242.337-140.035 1.475.855L250.69 455.414ZM254.961 457.886l-1.476-.855 242.337-140.05 1.475.87-242.336 140.035ZM259.232 460.341l-1.475-.855 242.337-140.034 1.475.855-242.337 140.034ZM263.503 462.812l-1.476-.855 242.337-140.034 1.475.855-242.336 140.034ZM267.772 465.284l-1.475-.855 242.337-140.034 1.475.855-242.337 140.034ZM272.042 467.755l-1.491-.87 242.337-140.034 1.49.87-242.336 140.034ZM276.312 470.211l-1.491-.855 242.337-140.035 1.491.855-242.337 140.035ZM280.583 472.681l-1.491-.854 242.337-140.035 1.49.855-242.336 140.034ZM284.852 475.153l-1.491-.855 242.337-140.034 1.491.854-242.337 140.035ZM289.123 477.623l-1.491-.87 242.337-140.034 1.49.87-242.336 140.034ZM293.393 480.08l-1.491-.855 242.337-140.034 1.491.855L293.393 480.08ZM297.663 482.551l-1.491-.855 242.337-140.034 1.49.855-242.336 140.034Z" opacity=".05"/></g></g><path fill="url(#w)" d="M191.605 283.441c54.349-31.379 142.395-31.379 196.729 0 25.964 15.014 39.505 34.472 40.654 54.133 1.242-21.463-12.299-43.16-40.654-59.542-54.349-31.395-142.411-31.395-196.729 0-28.355 16.382-41.927 38.079-40.654 59.542 1.149-19.661 14.737-39.135 40.654-54.133Z"/><path fill="url(#x)" d="M332.96 317.851a48.749 48.749 0 0 0-24.209 4.056c9.317-7.771 7.169-15.713-6.444-23.826l-1.01-.59a58.853 58.853 0 0 0-14.099-6.077 54.149 54.149 0 0 0-14.395-2.161c-4.653.03-9.285.636-13.79 1.803a92.904 92.904 0 0 0-7.205 2.145l-8.758-5.067-12.888 7.445 7.205 4.181a146.434 146.434 0 0 0-3.882 2.16l-4.659 2.736-7.143-4.135-12.889 7.445 7.144 4.134-8.898 5.145-3.479 2.02-.947.529-14.783 8.548 12.889 7.46 14.783-8.548 92.891 53.713-14.799 8.549 12.889 7.444 14.798-8.548 4.426-2.549 8.898-5.144 7.267 4.196 12.889-7.445-4.659-2.657-2.655-1.555 8.556-4.942 7.267 4.196 12.889-7.444-4.659-2.658-3.695-2.145c5.077-4.429 7.764-8.905 8.106-13.413.372-6.735-5.218-13.469-16.771-20.204l-.777-.467a62.942 62.942 0 0 0-25.404-8.33Zm-86.525-3.015 4.146-2.409c10.27-5.927 20.105-6.186 29.505-.777 5.497 3.108 8.478 6.076 8.99 8.703.513 2.627-2.065 5.58-7.764 8.844l-5.015 2.89-29.862-17.251Zm82.798 47.838-35.669-20.562 5.156-2.984a29.998 29.998 0 0 1 16.398-4.663c5.114.249 11.015 2.321 17.702 6.217 5.963 3.451 9.183 6.637 9.659 9.559.481 2.921-2.128 6.03-7.764 9.325l-5.482 3.108Z"/><path fill="url(#y)" d="M208.717 297.506v8.269l7.143-4.134-7.143-4.135Z"/><path fill="url(#z)" d="M230.161 285.119v8.269l7.205-4.088-7.205-4.181Z"/><path fill="url(#A)" d="M314.45 301.656v9.822l-6.46-3.963 6.46-5.859Z"/><path fill="url(#B)" d="M375.99 334.87v11.998l-9.69-5.999 9.69-5.999Z"/><path fill="url(#C)" d="M332.96 307.391a48.76 48.76 0 0 0-24.209 4.057c9.317-7.771 7.169-15.718-6.444-23.842l-1.01-.575a58.933 58.933 0 0 0-14.099-6.077 53.53 53.53 0 0 0-14.395-2.16c-4.653.03-9.285.635-13.79 1.803a84.163 84.163 0 0 0-7.205 2.145l-8.758-5.067-12.888 7.444 7.205 4.181a143.72 143.72 0 0 0-3.882 2.161l-4.659 2.735-7.143-4.134-12.889 7.445 7.144 4.134-8.898 5.144-3.479 2.005-.947.544-14.783 8.548 12.889 7.46 14.783-8.548 92.969 53.714-14.799 8.548 12.889 7.445 14.798-8.548 4.426-2.549 8.898-5.145 7.267 4.197 12.888-7.445-4.658-2.658-2.655-1.554 8.556-4.942 7.267 4.196 12.889-7.445-4.659-2.657-3.696-2.145c5.078-4.43 7.765-8.906 8.106-13.413.373-6.735-5.217-13.47-16.771-20.205l-.776-.451a62.708 62.708 0 0 0-25.482-8.346Zm-86.525-3.015 4.146-2.409c10.27-5.927 20.105-6.186 29.505-.777 5.497 3.108 8.478 6.077 8.991 8.704.512 2.626-2.066 5.579-7.765 8.843l-5.015 2.891-29.862-17.252Zm82.798 47.839-35.607-20.562 5.156-2.985a29.997 29.997 0 0 1 16.398-4.662c5.114.249 11.015 2.321 17.702 6.217 5.963 3.45 9.183 6.636 9.659 9.558.481 2.922-2.127 6.03-7.764 9.325l-5.544 3.109Z"/><path fill="url(#D)" d="M376.206 354.624v10.459l-12.889 7.445v-10.46l12.889-7.444Z"/><path fill="url(#E)" d="M354.762 367.011v10.46l-12.889 7.444v-10.46l12.889-7.444Z"/><path fill="url(#F)" d="M306.498 386.501v10.46l-12.904-7.445v-10.46l12.904 7.445Z"/><path fill="url(#G)" d="M187.754 317.882v10.475l12.889 7.445v-10.46l-12.889-7.46Z"/><path fill="url(#H)" d="M215.425 327.254v-10.46l-14.783 8.548v10.46l14.783-8.548Z"/><path fill="url(#I)" d="M215.424 316.794v10.46l83.916 48.491 9.053-5.237-92.969-53.714Z"/><path fill="#91A2FA" d="M291.887 259.226a32.066 32.066 0 0 1-15.746-3.761c-4.379-2.518-6.786-5.937-6.786-9.605s2.407-7.072 6.786-9.605c8.681-5.005 22.812-5.005 31.508 0 4.363 2.533 6.77 5.953 6.77 9.605s-2.407 7.087-6.77 9.605a32.124 32.124 0 0 1-15.762 3.761Zm0-25.023a30.603 30.603 0 0 0-14.892 3.559c-3.804 2.207-5.9 5.083-5.9 8.098 0 3.015 2.096 5.906 5.916 8.113 8.199 4.74 21.553 4.74 29.768 0 3.804-2.207 5.916-5.082 5.916-8.113 0-3.031-2.112-5.891-5.916-8.098a30.556 30.556 0 0 0-14.892-3.559Z"/><path fill="#97A6FC" d="M301.22 251.253a20.537 20.537 0 0 1-18.634 0c-5.155-2.969-5.155-7.771 0-10.771a20.556 20.556 0 0 1 18.634 0c5.14 2.969 5.14 7.802 0 10.771Z"/><path fill="#91A2FA" d="m346.282 219.764-9.239-5.331 15.73-9.092 9.255 5.331-15.746 9.092Z"/><path fill="#91A2FA" d="m329.667 211.341-11.646-3.435 10.109-11.454 11.646 3.434-10.109 11.455Z" opacity=".8"/><path fill="#91A2FA" d="m309.357 206.274-12.904-1.181 3.478-12.698 12.905 1.181-3.479 12.698Z" opacity=".6"/><path fill="#91A2FA" d="m287.337 205.093-12.92 1.181-3.479-12.698 12.905-1.181 3.494 12.698Z" opacity=".4"/><path fill="#91A2FA" d="m265.753 207.906-11.647 3.435-10.093-11.47 11.63-3.419 10.11 11.454Z" opacity=".2"/><path fill="#91A2FA" d="m246.73 214.433-9.24 5.331-15.73-9.092 9.239-5.331 15.731 9.092Z" opacity=".1"/><path fill="#91A2FA" d="m315.444 234.141-3.246-1.881 23.479-13.568 3.246 1.88-23.479 13.569Z" opacity=".2"/><path fill="#91A2FA" d="m308.006 230.504-4.084-1.212L319 212.195l4.084 1.213-15.078 17.096Z" opacity=".4"/><path fill="#91A2FA" d="m299.015 228.375-4.535-.42 5.187-18.945 4.534.419-5.186 18.946Z" opacity=".6"/><path fill="#91A2FA" d="m289.31 227.955-4.535.42-5.202-18.946 4.535-.419 5.202 18.945Z" opacity=".8"/><path fill="#91A2FA" d="m279.853 229.292-4.084 1.212-15.079-17.096 4.1-1.213 15.063 17.097ZM271.591 232.26l-3.246 1.881-23.479-13.569 3.246-1.88 23.479 13.568ZM265.302 236.55l-2.081 2.362-29.581-8.719 2.08-2.362 29.582 8.719ZM261.621 241.756l-.715 2.611-32.796-2.999.715-2.627 32.796 3.015ZM260.906 247.352l.715 2.626-32.796 3-.715-2.627 32.796-2.999ZM263.221 252.823l2.081 2.362-29.582 8.704-2.08-2.363 29.581-8.703ZM268.345 257.594l3.246 1.881-23.479 13.568-3.246-1.881 23.479-13.568Z"/><path fill="#97A6FC" d="M384.11 201.813c34.52 24.059 36.446 58.454 5.824 83.694l12.422 11.455c42.253-30.431 41.321-74.245-2.748-104.132l-15.498 8.983Z" opacity=".6"/><path fill="#91A2FA" d="M310.568 314.168c-36.507 3.31-75.173-3.109-103.295-19.397a94.38 94.38 0 0 1-17.081-12.433l-21.072 4.196a108.177 108.177 0 0 0 22.687 17.096c35.575 20.547 85.406 27.852 131.091 21.93l-12.33-11.392Z" opacity=".2"/><path fill="#97A6FC" d="m151.852 257.47 21.072-4.196c-3.727-20.081 7.764-40.923 34.349-56.31 44.038-25.442 113.839-26.903 160.859-4.398l15.451-8.921c-55.577-27.416-139.182-25.956-191.73 4.414-32.75 18.915-46.073 44.808-40.001 69.411ZM278.983 291.585l-8.246-4.756L376.61 225.64l8.246 4.756-105.873 61.189Z"/><path fill="#97A6FC" d="m290.691 298.361-8.246-4.771 46.027-26.593 8.245 4.771-46.026 26.593Z" opacity=".8"/><path fill="#97A6FC" d="m303.223 305.604-8.245-4.772 73.263-42.321 8.245 4.756-73.263 42.337Z" opacity=".6"/><path fill="#97A6FC" d="m315.568 312.722-8.261-4.756 57.036-32.949 8.245 4.756-57.02 32.949Z" opacity=".2"/><defs><linearGradient id="a" x1="513.95" x2="593.266" y1="530.116" y2="575.884" gradientUnits="userSpaceOnUse"><stop stop-color="#BCBEFF"/><stop offset=".23" stop-color="#AAADF8"/><stop offset=".68" stop-color="#7C83E5"/><stop offset="1" stop-color="#5761D7"/></linearGradient><linearGradient id="b" x1="504.002" x2="603.935" y1="547.437" y2="547.437" gradientUnits="userSpaceOnUse"><stop stop-color="#E9E9FD"/><stop offset=".36" stop-color="#D3D2F9"/><stop offset=".71" stop-color="#C5C4F7"/><stop offset="1" stop-color="#C0BFF6"/></linearGradient><linearGradient id="c" x1="52360" x2="54111.4" y1="9528.62" y2="12071" gradientUnits="userSpaceOnUse"><stop stop-color="#BCBEFF"/><stop offset=".23" stop-color="#AAADF8"/><stop offset=".68" stop-color="#7C83E5"/><stop offset="1" stop-color="#5761D7"/></linearGradient><linearGradient id="d" x1="51817" x2="56956.7" y1="14075.8" y2="14075.8" gradientUnits="userSpaceOnUse"><stop stop-color="#E9E9FD"/><stop offset=".36" stop-color="#D3D2F9"/><stop offset=".71" stop-color="#C5C4F7"/><stop offset="1" stop-color="#C0BFF6"/></linearGradient><linearGradient id="e" x1="364.959" x2="535.052" y1="453.479" y2="453.479" gradientUnits="userSpaceOnUse"><stop stop-color="#5778FF"/><stop offset=".104" stop-color="#567FFF"/><stop offset=".261" stop-color="#5394FF"/><stop offset=".45" stop-color="#4DB6FF"/><stop offset=".664" stop-color="#46E4FF"/><stop offset=".774" stop-color="#42FFFF"/></linearGradient><linearGradient id="f" x1="43049.8" x2="44801.1" y1="11841.4" y2="14383.9" gradientUnits="userSpaceOnUse"><stop stop-color="#BCBEFF"/><stop offset=".23" stop-color="#AAADF8"/><stop offset=".68" stop-color="#7C83E5"/><stop offset="1" stop-color="#5761D7"/></linearGradient><linearGradient id="g" x1="42531.6" x2="47674.8" y1="17439.7" y2="17439.7" gradientUnits="userSpaceOnUse"><stop stop-color="#E9E9FD"/><stop offset=".36" stop-color="#D3D2F9"/><stop offset=".71" stop-color="#C5C4F7"/><stop offset="1" stop-color="#C0BFF6"/></linearGradient><linearGradient id="h" x1="43049.8" x2="44800.6" y1="10492.5" y2="13034.3" gradientUnits="userSpaceOnUse"><stop stop-color="#BCBEFF"/><stop offset=".23" stop-color="#AAADF8"/><stop offset=".68" stop-color="#7C83E5"/><stop offset="1" stop-color="#5761D7"/></linearGradient><linearGradient id="i" x1="42531.6" x2="47674.8" y1="15503.9" y2="15503.9" gradientUnits="userSpaceOnUse"><stop stop-color="#E9E9FD"/><stop offset=".36" stop-color="#D3D2F9"/><stop offset=".71" stop-color="#C5C4F7"/><stop offset="1" stop-color="#C0BFF6"/></linearGradient><linearGradient id="j" x1="224.231" x2="54.141" y1="469.7" y2="470.704" gradientUnits="userSpaceOnUse"><stop stop-color="#5778FF"/><stop offset=".104" stop-color="#567FFF"/><stop offset=".261" stop-color="#5394FF"/><stop offset=".45" stop-color="#4DB6FF"/><stop offset=".664" stop-color="#46E4FF"/><stop offset=".774" stop-color="#42FFFF"/></linearGradient><linearGradient id="k" x1="26610.7" x2="28362.1" y1="5161.86" y2="7702.14" gradientUnits="userSpaceOnUse"><stop stop-color="#BCBEFF"/><stop offset=".23" stop-color="#AAADF8"/><stop offset=".68" stop-color="#7C83E5"/><stop offset="1" stop-color="#5761D7"/></linearGradient><linearGradient id="l" x1="26074.4" x2="31208.5" y1="7900.77" y2="7900.77" gradientUnits="userSpaceOnUse"><stop stop-color="#E9E9FD"/><stop offset=".36" stop-color="#D3D2F9"/><stop offset=".71" stop-color="#C5C4F7"/><stop offset="1" stop-color="#C0BFF6"/></linearGradient><linearGradient id="m" x1="26610.7" x2="28367.1" y1="3948.11" y2="6490.26" gradientUnits="userSpaceOnUse"><stop stop-color="#BCBEFF"/><stop offset=".23" stop-color="#AAADF8"/><stop offset=".68" stop-color="#7C83E5"/><stop offset="1" stop-color="#5761D7"/></linearGradient><linearGradient id="n" x1="517.702" x2="588.41" y1="116.854" y2="157.638" gradientUnits="userSpaceOnUse"><stop offset=".24" stop-color="#5761D7"/><stop offset=".39" stop-color="#7A82E5"/><stop offset=".55" stop-color="#979CF0"/><stop offset=".7" stop-color="#ACAFF8"/><stop offset=".85" stop-color="#B8BAFD"/><stop offset="1" stop-color="#BCBEFF"/></linearGradient><linearGradient id="o" x1="26099.3" x2="31238.3" y1="6150.71" y2="6150.71" gradientUnits="userSpaceOnUse"><stop stop-color="#E9E9FD"/><stop offset=".36" stop-color="#D3D2F9"/><stop offset=".71" stop-color="#C5C4F7"/><stop offset="1" stop-color="#C0BFF6"/></linearGradient><linearGradient id="p" x1="25381.1" x2="30207.3" y1="5963.93" y2="5963.93" gradientUnits="userSpaceOnUse"><stop stop-color="#E9E9FD"/><stop offset=".36" stop-color="#D3D2F9"/><stop offset=".71" stop-color="#C5C4F7"/><stop offset="1" stop-color="#C0BFF6"/></linearGradient><linearGradient id="q" x1="411.839" x2="496.886" y1="311.499" y2="164.194" gradientUnits="userSpaceOnUse"><stop stop-color="#5778FF"/><stop offset=".104" stop-color="#567FFF"/><stop offset=".261" stop-color="#5394FF"/><stop offset=".45" stop-color="#4DB6FF"/><stop offset=".664" stop-color="#46E4FF"/><stop offset=".774" stop-color="#42FFFF"/></linearGradient><linearGradient id="r" x1="99913" x2="118875" y1="-16197.8" y2="14589.1" gradientUnits="userSpaceOnUse"><stop stop-color="#35068C"/><stop offset=".02" stop-color="#40DDDA"/><stop offset=".09" stop-color="#3AAEC0"/><stop offset=".17" stop-color="#3484A9"/><stop offset=".26" stop-color="#2F6195"/><stop offset=".35" stop-color="#2B4486"/><stop offset=".44" stop-color="#282E79"/><stop offset=".54" stop-color="#261E71"/><stop offset=".66" stop-color="#24156C"/><stop offset=".82" stop-color="#24126A"/></linearGradient><linearGradient id="s" x1="109.179" x2="420.214" y1="362.675" y2="362.675" gradientUnits="userSpaceOnUse"><stop stop-color="#3671E9"/><stop offset=".15" stop-color="#91A2FA"/><stop offset=".33" stop-color="#8B97F1"/><stop offset=".52" stop-color="#7366C8"/><stop offset=".72" stop-color="#654CB3"/><stop offset=".93" stop-color="#4127A7"/><stop offset="1" stop-color="#260672"/></linearGradient><linearGradient id="t" x1="22161.8" x2="84817.2" y1="45113.4" y2="45113.4" gradientUnits="userSpaceOnUse"><stop stop-color="#42E8E0"/><stop offset=".15" stop-color="#43E3E0"/><stop offset=".33" stop-color="#45D5DF"/><stop offset=".52" stop-color="#49BDDD"/><stop offset=".72" stop-color="#4E9CDB"/><stop offset=".93" stop-color="#5472D8"/><stop offset="1" stop-color="#5761D7"/></linearGradient><linearGradient id="u" x1="102648" x2="121610" y1="-22241.8" y2="8545.16" gradientUnits="userSpaceOnUse"><stop stop-color="#654CB2"/><stop offset=".02" stop-color="#40DDDA"/><stop offset=".09" stop-color="#3AAEC0"/><stop offset=".17" stop-color="#3484A9"/><stop offset=".26" stop-color="#2F6195"/><stop offset=".35" stop-color="#2B4486"/><stop offset=".44" stop-color="#282E79"/><stop offset=".54" stop-color="#261E71"/><stop offset=".66" stop-color="#24156C"/><stop offset=".82" stop-color="#24126A"/></linearGradient><linearGradient id="v" x1="265.442" x2="343.293" y1="212.227" y2="600.925" gradientUnits="userSpaceOnUse"><stop stop-color="#42E8E0"/><stop offset=".02" stop-color="#40DDDA"/><stop offset=".09" stop-color="#3AAEC0"/><stop offset=".17" stop-color="#3484A9"/><stop offset=".26" stop-color="#2F6195"/><stop offset=".35" stop-color="#2B4486"/><stop offset=".44" stop-color="#282E79"/><stop offset=".54" stop-color="#261E71"/><stop offset=".66" stop-color="#24156C"/><stop offset=".82" stop-color="#24126A"/></linearGradient><linearGradient id="w" x1="150.873" x2="429.065" y1="296.03" y2="296.03" gradientUnits="userSpaceOnUse"><stop stop-color="#2B237C"/><stop offset="1" stop-color="#180D5B"/></linearGradient><linearGradient id="x" x1="20001.9" x2="42857.5" y1="28406.6" y2="28406.6" gradientUnits="userSpaceOnUse"><stop stop-color="#2B237C"/><stop offset="1" stop-color="#180D5B"/></linearGradient><linearGradient id="y" x1="1070.96" x2="1075.07" y1="2185.27" y2="2244.98" gradientUnits="userSpaceOnUse"><stop stop-color="#2B237D"/><stop offset=".02" stop-color="#40DDDA"/><stop offset=".09" stop-color="#3AAEC0"/><stop offset=".17" stop-color="#3484A9"/><stop offset=".26" stop-color="#2F6195"/><stop offset=".35" stop-color="#2B4486"/><stop offset=".44" stop-color="#282E79"/><stop offset=".54" stop-color="#261E71"/><stop offset=".66" stop-color="#24156C"/><stop offset=".82" stop-color="#24126A"/></linearGradient><linearGradient id="z" x1="1199.55" x2="1203.53" y1="2106.98" y2="2166.7" gradientUnits="userSpaceOnUse"><stop stop-color="#2C247E"/><stop offset=".02" stop-color="#40DDDA"/><stop offset=".09" stop-color="#3AAEC0"/><stop offset=".17" stop-color="#3484A9"/><stop offset=".26" stop-color="#2F6195"/><stop offset=".35" stop-color="#2B4486"/><stop offset=".44" stop-color="#282E79"/><stop offset=".54" stop-color="#261E71"/><stop offset=".66" stop-color="#24156C"/><stop offset=".82" stop-color="#24126A"/></linearGradient><linearGradient id="A" x1="1500.15" x2="1507.74" y1="2571.07" y2="2655.26" gradientUnits="userSpaceOnUse"><stop stop-color="#2B237C"/><stop offset="1" stop-color="#180D5B"/></linearGradient><linearGradient id="B" x1="2503.47" x2="2587.26" y1="3407.33" y2="3421.55" gradientUnits="userSpaceOnUse"><stop stop-color="#2B237C"/><stop offset="1" stop-color="#180D5B"/></linearGradient><linearGradient id="C" x1="20982.3" x2="90746.6" y1="26289.2" y2="51600.8" gradientUnits="userSpaceOnUse"><stop stop-color="#654DB3"/><stop offset=".09" stop-color="#40DDDA"/><stop offset=".09" stop-color="#E9E9FE"/><stop offset=".17" stop-color="#654DB3"/><stop offset=".26" stop-color="#2F6195"/><stop offset=".35" stop-color="#2B4486"/><stop offset=".44" stop-color="#282E79"/><stop offset=".54" stop-color="#261E71"/><stop offset=".66" stop-color="#24156C"/><stop offset=".82" stop-color="#24126A"/></linearGradient><linearGradient id="D" x1="3177.8" x2="3316.46" y1="5207.83" y2="5228.76" gradientUnits="userSpaceOnUse"><stop stop-color="#2B237C"/><stop offset="1" stop-color="#180D5B"/></linearGradient><linearGradient id="E" x1="2978.49" x2="3117.15" y1="5362.92" y2="5383.85" gradientUnits="userSpaceOnUse"><stop stop-color="#2B237C"/><stop offset="1" stop-color="#180D5B"/></linearGradient><linearGradient id="F" x1="2520.2" x2="2691.03" y1="5510.32" y2="5536.14" gradientUnits="userSpaceOnUse"><stop stop-color="#2B237C"/><stop offset="1" stop-color="#180D5B"/></linearGradient><linearGradient id="G" x1="1590.94" x2="1615.03" y1="4620.31" y2="4912.35" gradientUnits="userSpaceOnUse"><stop stop-color="#2C247D"/><stop offset=".02" stop-color="#40DDDA"/><stop offset=".09" stop-color="#3AAEC0"/><stop offset=".17" stop-color="#3484A9"/><stop offset=".26" stop-color="#2F6195"/><stop offset=".35" stop-color="#2B4486"/><stop offset=".44" stop-color="#282E79"/><stop offset=".54" stop-color="#261E71"/><stop offset=".66" stop-color="#24156C"/><stop offset=".82" stop-color="#24126A"/></linearGradient><linearGradient id="H" x1="1942.09" x2="1965.01" y1="4878.14" y2="5179.3" gradientUnits="userSpaceOnUse"><stop stop-color="#2B237C"/><stop offset="1" stop-color="#180D5B"/></linearGradient><linearGradient id="I" x1="14272.3" x2="14396.3" y1="14027.1" y2="17334.1" gradientUnits="userSpaceOnUse"><stop stop-color="#91A2FA"/><stop offset=".02" stop-color="#91A2FA"/><stop offset=".02" stop-color="#654DB3"/><stop offset=".09" stop-color="#654DB3"/><stop offset=".17" stop-color="#654DB3"/><stop offset=".26" stop-color="#654CB3"/><stop offset=".35" stop-color="#35068C"/><stop offset=".44" stop-color="#35068C"/><stop offset=".54" stop-color="#35068C"/><stop offset=".66" stop-color="#35068C"/><stop offset=".82" stop-color="#35068C"/></linearGradient></defs></svg>