<svg xmlns="http://www.w3.org/2000/svg" width="96" height="64" fill="none"><rect width="96" height="64" fill="#E0E0E0" opacity=".05" rx="8"/><g clip-path="url(#a)"><path fill="#E0E0E0" d="M67.402 36.837C64.73 47.557 53.868 54.073 43.164 51.4c-10.72-2.672-17.237-13.533-14.565-24.237 2.672-10.72 13.518-17.237 24.238-14.565 10.705 2.657 17.237 13.518 14.565 24.238Z"/><path fill="#0D0D2B" d="M57.523 29.508c.39-2.656-1.625-4.094-4.406-5.047l.906-3.61-2.187-.546-.875 3.516a58.136 58.136 0 0 0-1.766-.407l.875-3.53-2.188-.548-.89 3.594c-.484-.11-.953-.219-1.406-.328v-.016l-3.032-.75-.578 2.344s1.625.375 1.594.39c.89.22 1.047.813 1.016 1.282l-1.032 4.11c.063.015.141.03.235.077a1.294 1.294 0 0 1-.235-.062l-1.437 5.75c-.11.265-.39.672-1 .515.016.032-1.594-.39-1.594-.39l-1.094 2.515 2.86.72c.531.14 1.047.265 1.562.405l-.906 3.641 2.188.547.906-3.61c.593.157 1.187.313 1.75.454l-.89 3.593 2.187.547.906-3.64c3.75.703 6.562.422 7.734-2.97.953-2.718-.047-4.296-2.015-5.327 1.453-.328 2.53-1.281 2.812-3.219Zm-5.016 7.031c-.671 2.72-5.265 1.25-6.75.875l1.204-4.828c1.484.375 6.265 1.11 5.547 3.953Zm.688-7.078c-.625 2.485-4.438 1.219-5.672.906l1.094-4.375c1.234.313 5.219.891 4.578 3.47Z"/></g><defs><clipPath id="a"><path fill="#fff" d="M28 12h40v40H28z"/></clipPath></defs></svg>