<svg xmlns="http://www.w3.org/2000/svg" width="80" height="80" fill="none"><g clip-path="url(#a)"><circle cx="40" cy="40" r="40" fill="#fff"/><path fill="#59C19C" d="M40 0a40 40 0 1 0 0 80 40 40 0 0 0 0-80Zm-.873 12.26h8.613a1.144 1.144 0 0 1 1.1 1.45l-6.767 23.06 6.35-1.94-1.36 4.617-6.413 1.866-4.16 14.047h22.253a1.143 1.143 0 0 1 1.094 1.457l-1.94 6.666a1.53 1.53 0 0 1-1.467 1.1H22.443l5.744-19.406-6.354 1.933 1.4-4.537L29.6 40.64l8.073-27.267a1.52 1.52 0 0 1 1.457-1.113h-.003Z"/></g><defs><clipPath id="a"><path fill="#fff" d="M0 0h80v80H0z"/></clipPath></defs></svg>