<svg xmlns="http://www.w3.org/2000/svg" width="96" height="64" fill="none"><rect width="96" height="64" fill="#E0E0E0" opacity=".05" rx="8"/><path fill="#BDBDBD" d="M41.493 20.227H54.46v23.727H41.493V20.227Z"/><path fill="#828282" d="M42.317 32.091c0-4.82 2.222-9.097 5.639-11.863C45.445 18.216 42.276 17 38.818 17 30.627 17 24 23.749 24 32.091c0 8.342 6.627 15.09 14.818 15.09 3.457 0 6.627-1.215 9.138-3.227-3.417-2.725-5.64-7.042-5.64-11.863Z"/><path fill="#E0E0E0" d="M71.952 32.091c0 8.342-6.626 15.09-14.817 15.09-3.458 0-6.627-1.215-9.138-3.227 3.457-2.767 5.639-7.042 5.639-11.863 0-4.82-2.223-9.097-5.64-11.863C50.508 18.216 53.678 17 57.136 17c8.19 0 14.818 6.79 14.818 15.091Z"/></svg>