<svg xmlns="http://www.w3.org/2000/svg" width="135" height="40" fill="none"><path fill="#fff" fill-opacity=".1" d="M20 40c11.046 0 20-8.954 20-20S31.046 0 20 0 0 8.954 0 20s8.954 20 20 20Z"/><path fill="#fff" d="M18.842 28.046a8.141 8.141 0 0 1-6.946-8.057 8.14 8.14 0 0 1 6.946-8.057v-4.24c-6.256.599-11.15 5.876-11.15 12.297s4.893 11.698 11.15 12.297v-4.24ZM26.998 12l-.109.371V23.14l.11.11 4.998-2.955L26.998 12Z"/><path fill="#fff" d="M26.998 12 22 20.294l4.998 2.954V12ZM26.999 24.874l-.062.075v3.836l.062.18L32 21.92 27 24.874Z"/><path fill="#fff" d="M26.998 28.965v-4.09L22 21.92l4.998 7.044ZM26.998 23.248l4.999-2.954-4.999-2.272v5.226ZM22 20.294l4.998 2.954v-5.226L22 20.294ZM68.496 18.326c-.402-2.908-2.64-4.596-5.541-4.596-3.42 0-5.996 2.493-5.996 6.724 0 4.226 2.544 6.725 5.995 6.725 3.113 0 5.178-2.013 5.542-4.513l-2.39-.013c-.3 1.535-1.553 2.397-3.12 2.397-2.122 0-3.643-1.591-3.643-4.596 0-2.953 1.509-4.595 3.65-4.595 1.592 0 2.838.9 3.113 2.467h2.39ZM71.388 27h2.372v-4.794h2.416L78.746 27h2.646l-2.832-5.19c1.54-.62 2.352-1.937 2.352-3.714 0-2.5-1.61-4.187-4.615-4.187h-4.909V27Zm2.372-6.763v-4.346h2.173c1.77 0 2.563.811 2.563 2.205 0 1.393-.792 2.141-2.55 2.141H73.76ZM85.496 27l1.08-3.228h4.922L92.585 27h2.531l-4.615-13.09h-2.927L82.965 27h2.531Zm1.72-5.133 1.77-5.273h.103l1.77 5.273h-3.643ZM97.56 27h2.371v-4.423h2.506c3.023 0 4.647-1.816 4.647-4.334 0-2.5-1.605-4.334-4.615-4.334h-4.91V27Zm2.371-6.373v-4.736h2.173c1.777 0 2.564.958 2.564 2.352 0 1.393-.787 2.384-2.551 2.384h-2.186ZM109.865 27h2.371v-4.423h2.506c3.023 0 4.647-1.816 4.647-4.334 0-2.5-1.605-4.334-4.615-4.334h-4.909V27Zm2.371-6.373v-4.736h2.173c1.777 0 2.564.958 2.564 2.352 0 1.393-.787 2.384-2.551 2.384h-2.186Zm21.63-.172c0-4.232-2.582-6.725-6.015-6.725-3.439 0-6.015 2.493-6.015 6.724 0 4.226 2.576 6.725 6.015 6.725 3.433 0 6.015-2.493 6.015-6.724Zm-2.384 0c0 2.978-1.496 4.595-3.631 4.595-2.128 0-3.631-1.617-3.631-4.596 0-2.978 1.503-4.595 3.631-4.595 2.135 0 3.631 1.617 3.631 4.595Z"/></svg>