<svg xmlns="http://www.w3.org/2000/svg" width="96" height="64" fill="none"><rect width="96" height="64" fill="#E0E0E0" opacity=".05" rx="8"/><g clip-path="url(#a)"><path fill="#E0E0E0" d="M58.893 24.655A9.253 9.253 0 0 0 55.411 24c-3.84 0-6.55 2.104-6.57 5.124-.024 2.218 1.927 3.468 3.403 4.21 1.514.762 2.02 1.242 2.015 1.923-.01 1.037-1.209 1.506-2.325 1.506-1.533 0-2.37-.232-3.66-.814l-.477-.243-.544 3.477c.933.423 2.615.785 4.352.817 4.082 0 6.75-2.09 6.782-5.304.033-1.772-1.023-3.111-3.245-4.218-1.35-.718-2.188-1.198-2.188-1.926 0-.645.718-1.334 2.217-1.334a6.584 6.584 0 0 1 2.911.598l.36.175.545-3.36-.094.024Zm9.963-.373h-3c-.933 0-1.636.28-2.044 1.287l-5.768 14.214h4.081l.816-2.33 4.982.005c.117.545.477 2.325.477 2.325H72l-3.144-15.501Zm-25.537-.13h3.89L44.776 39.66h-3.885l2.428-15.514v.005Zm-9.874 8.547.403 2.154 3.801-10.571h4.12l-6.121 15.48h-4.11l-3.36-13.108a.882.882 0 0 0-.358-.519A15.85 15.85 0 0 0 24 24.598l.053-.326h6.26c.85.036 1.534.326 1.762 1.312l1.367 7.123V32.7h.003Zm30.612 1.582 1.55-4.338c-.019.047.32-.895.516-1.477l.267 1.339.9 4.474h-3.235v.002h.002Z"/></g><defs><clipPath id="a"><path fill="#fff" d="M24 8h48v48H24z"/></clipPath></defs></svg>